HIERARCHY
ROOT hip
{
	OFFSET 0.000000 0.000000 0.000000 
	CHANNELS 6 Xposition Yposition Zposition Xrotation Zrotation Yrotation
	JOINT abdomen
	{
		OFFSET 0.000000 3.402643 0.000000 
		CHANNELS 3 Xrotation Zrotation Yrotation
		JOINT chest
		{
			OFFSET 0.000000 8.438565 -0.680529 
			CHANNELS 3 Xrotation Zrotation Yrotation
			JOINT neck
			{
				OFFSET 0.000000 10.207942 -0.272212 
				CHANNELS 3 Xrotation Zrotation Yrotation
				JOINT head
				{
					OFFSET 0.000000 3.130431 0.000000 
					CHANNELS 3 Xrotation Zrotation Yrotation
					End Site
					{
						OFFSET 0.000000 3.130435 0.000000 
					}
				}
			}
			JOINT lCollar
			{
				OFFSET 3.470700 6.669187 -0.816635 
				CHANNELS 3 Yrotation Zrotation Xrotation
				JOINT lShldr
				{
					OFFSET 3.198488 0.000000 0.000000 
					CHANNELS 3 Zrotation Yrotation Xrotation
					JOINT lForeArm
					{
						OFFSET 10.139888 0.000000 0.000000 
						CHANNELS 3 Yrotation Zrotation Xrotation
						JOINT lHand
						{
							OFFSET 8.370511 0.000000 0.000000 
							CHANNELS 3 Zrotation Yrotation Xrotation
							End Site
							{
								OFFSET 4.083176 0.000000 0.000000 
							}
						}
					}
				}
			}
			JOINT rCollar
			{
				OFFSET -3.470700 6.669187 -0.816635 
				CHANNELS 3 Yrotation Zrotation Xrotation
				JOINT rShldr
				{
					OFFSET -3.198488 0.000000 0.000000 
					CHANNELS 3 Zrotation Yrotation Xrotation
					JOINT rForeArm
					{
						OFFSET -10.139888 0.000000 0.000000 
						CHANNELS 3 Yrotation Zrotation Xrotation
						JOINT rHand
						{
							OFFSET -8.370511 0.000000 0.000000 
							CHANNELS 3 Zrotation Yrotation Xrotation
							End Site
							{
								OFFSET -4.083176 0.000000 0.000000 
							}
						}
					}
				}
			}
		}
	}
	JOINT lThigh
	{
		OFFSET 5.308129 -1.633274 1.361059 
		CHANNELS 3 Xrotation Zrotation Yrotation
		JOINT lShin
		{
			OFFSET -2.041588 -20.007561 0.000000 
			CHANNELS 3 Xrotation Zrotation Yrotation
			JOINT lFoot
			{
				OFFSET 0.000000 -19.190928 -1.224953 
				CHANNELS 3 Xrotation Yrotation Zrotation
				End Site
				{
					OFFSET 0.000000 -2.449906 4.627600 
				}
			}
		}
	}
	JOINT rThigh
	{
		OFFSET -5.308129 -1.633274 1.361059 
		CHANNELS 3 Xrotation Zrotation Yrotation
		JOINT rShin
		{
			OFFSET 2.041588 -20.007561 0.000000 
			CHANNELS 3 Xrotation Zrotation Yrotation
			JOINT rFoot
			{
				OFFSET 0.000000 -19.190928 -1.224953 
				CHANNELS 3 Xrotation Yrotation Zrotation
				End Site
				{
					OFFSET 0.000000 -2.449906 4.627600 
				}
			}
		}
	}
}
MOTION
Frames: 10
Frame Time: 0.016667
-1.949540 42.977245 1.485291 -1.737500 -5.827420 19.570101 -19.916901 3.464550 7.066970 16.532801 -4.072000 4.036170 -3.639420 4.370770 -15.417500 6.087370 7.354210 -6.999300 2.000000 -2.000000 0.000000 -77.385300 16.102400 -168.134003 78.359901 -0.242434 0.133953 0.067368 -0.063189 -160.115005 -2.000000 2.000000 0.000000 57.200100 23.428600 -159.423996 -98.887100 0.195236 0.115671 -0.060411 0.043504 -152.654007 15.409267 10.458171 -11.876192 -29.485518 5.402354 -2.086517 13.220655 8.365798 -2.881354 7.135577 10.622272 -14.009908 3.552331 -4.166610 -0.143582 -22.895868 -12.953605 -6.208910 
-1.960269 42.981495 1.499973 -1.678510 -5.798310 19.553499 -19.942101 3.429400 6.943940 16.474501 -3.984040 3.975500 -3.723100 4.443930 -15.886600 6.068200 7.432420 -7.223650 2.000000 -2.000000 0.000000 -77.492897 16.219200 -168.279999 78.506401 -0.242092 0.134023 0.067433 -0.063340 -160.173996 -2.000000 2.000000 0.000000 57.034100 23.116899 -159.796005 -98.906700 0.195193 0.115664 -0.060337 0.043241 -152.556000 15.387146 10.405755 -11.806511 -29.518169 5.387430 -2.092130 13.249755 8.326818 -2.873022 7.107597 10.586499 -14.058582 3.547092 -4.171069 -0.144029 -22.753805 -13.011899 -6.189672 
-1.980175 42.988041 1.503534 -1.619900 -5.896100 19.521000 -19.995100 3.395130 6.851870 16.386200 -4.022560 3.925840 -3.687000 5.167480 -16.456900 5.969030 7.325700 -7.493810 2.000000 -2.000000 0.000000 -77.561401 16.316500 -168.455994 78.623596 -0.241818 0.134079 0.067520 -0.063541 -160.251999 -2.000000 2.000000 0.000000 56.936501 22.834499 -160.167999 -98.935997 0.195129 0.115654 -0.060359 0.043320 -152.585999 15.361099 10.502024 -11.659683 -29.646929 5.391982 -2.104402 13.333041 8.297441 -2.886166 7.090135 10.665963 -14.039603 3.486566 -4.132709 -0.143789 -22.683277 -13.004943 -6.152528 
-2.001283 42.985226 1.507510 -1.659850 -6.120500 19.365499 -20.009300 3.401140 6.756110 16.336901 -4.090480 3.885460 -3.837660 5.520990 -16.995701 5.980080 7.511070 -7.730420 2.000000 -2.000000 0.000000 -77.708099 16.423100 -168.779007 78.701698 -0.241635 0.134115 0.067574 -0.063666 -160.300995 -2.000000 2.000000 0.000000 56.848701 22.747299 -160.451004 -98.926201 0.195151 0.115657 -0.060500 0.043820 -152.770996 15.363623 10.732293 -11.384625 -29.706583 5.391775 -2.104831 13.434356 8.239793 -2.866281 7.118648 10.878514 -13.900546 3.471822 -4.106805 -0.143155 -22.639282 -12.958935 -6.084074 
-2.000823 42.978664 1.533494 -1.748570 -6.217830 19.085899 -19.964399 3.410850 6.669730 16.366400 -4.071160 3.842880 -4.045570 5.863180 -17.566700 5.971530 7.706340 -7.979030 2.000000 -2.000000 0.000000 -77.884201 16.549400 -169.091995 78.750504 -0.241520 0.134138 0.067628 -0.063792 -160.348999 -2.000000 2.000000 0.000000 56.770802 22.738001 -160.675995 -98.896896 0.195215 0.115667 -0.060635 0.044293 -152.947006 15.667431 10.820142 -11.163340 -29.911785 5.412578 -2.112827 13.460696 8.322992 -2.877473 7.212168 10.989436 -13.634875 3.470184 -4.120965 -0.143450 -22.625011 -12.907950 -6.048466 
-1.992768 42.979435 1.563376 -1.738810 -6.237380 18.851000 -19.947100 3.381340 6.618460 16.425200 -4.051980 3.808020 -4.256720 6.220520 -18.229099 5.962990 7.901600 -8.286300 2.000000 -2.000000 0.000000 -77.962402 16.646601 -169.257996 78.770103 -0.241475 0.134147 0.067682 -0.063917 -160.397995 -2.000000 2.000000 0.000000 56.751400 22.631201 -160.959000 -98.945702 0.195108 0.115651 -0.060651 0.044346 -152.966995 15.801279 10.812348 -11.112072 -30.001627 5.409974 -2.113733 13.438071 8.545444 -2.890800 7.181219 10.977742 -13.464437 3.487636 -4.131807 -0.143698 -22.582607 -12.838898 -6.021856 
-1.990779 42.980076 1.589068 -1.679960 -6.266860 18.650200 -19.958799 3.320730 6.567620 16.464199 -4.081400 3.778050 -4.404250 6.537140 -18.938400 5.973980 8.067450 -8.611400 2.000000 -2.000000 0.000000 -77.972298 16.704901 -169.395004 78.779800 -0.241452 0.134152 0.067704 -0.063967 -160.417999 -2.000000 2.000000 0.000000 56.790600 22.495199 -161.261993 -98.994598 0.195001 0.115634 -0.060575 0.044083 -152.869003 15.843635 10.793070 -10.966652 -30.051941 5.406030 -2.112964 13.434463 8.636041 -2.886880 7.149177 10.969735 -13.323061 3.485323 -4.133267 -0.133402 -22.509665 -12.813378 -5.982439 
-1.986802 42.980076 1.617658 -1.650550 -6.286470 18.432699 -19.952999 3.264940 6.473260 16.493601 -4.071810 3.726450 -4.594640 6.836320 -19.608101 5.965340 8.243200 -8.919400 2.000000 -2.000000 0.000000 -78.040901 16.811800 -169.619995 78.828697 -0.241338 0.134174 0.067737 -0.064043 -160.447006 -2.000000 2.000000 0.000000 56.820000 22.476200 -161.487000 -98.965302 0.195065 0.115644 -0.060530 0.043925 -152.809998 15.868046 10.750625 -10.776425 -29.974077 5.396288 -2.109384 13.357614 8.671406 -2.872782 7.165993 10.949912 -13.138123 3.492352 -4.140120 -0.133672 -22.378510 -12.872067 -5.967130 
-1.981376 42.980076 1.646720 -1.630930 -6.296300 18.196501 -19.957001 3.240040 6.378490 16.493799 -4.032840 3.674860 -4.855930 7.193810 -20.279499 5.956850 8.438470 -9.217040 2.000000 -2.000000 0.000000 -78.148499 16.967600 -169.815002 78.916496 -0.241132 0.134215 0.067726 -0.064017 -160.436996 -2.000000 2.000000 0.000000 56.859200 22.505800 -161.632996 -98.935997 0.195129 0.115654 -0.060500 0.043820 -152.770996 16.001572 10.696343 -10.595152 -30.086727 5.434082 -2.111136 13.329699 8.767194 -2.876715 7.161928 10.942145 -12.942901 3.496006 -4.137527 -0.143150 -22.244583 -12.956638 -5.954676 
-1.983286 42.977760 1.672142 -1.621170 -6.315850 17.932301 -19.970200 3.209320 6.296070 16.454901 -3.993680 3.625990 -5.012000 7.631930 -20.919100 5.988090 8.662730 -9.496660 2.000000 -2.000000 0.000000 -78.207298 17.123501 -169.962006 78.965401 -0.241018 0.134237 0.067639 -0.063817 -160.358994 -2.000000 2.000000 0.000000 56.927700 22.496401 -161.809006 -98.935997 0.195129 0.115654 -0.060493 0.043794 -152.761993 16.130409 10.670536 -10.389625 -30.115274 5.441729 -2.113714 13.258112 8.851880 -2.861065 7.186712 10.915307 -12.737488 3.501496 -4.132390 -0.133601 -22.216818 -12.990754 -5.951257 
